<?xml version="1.0" standalone="no"?>
<!DOCTYPE svg PUBLIC "-//W3C//DTD SVG 20010904//EN"
 "http://www.w3.org/TR/2001/REC-SVG-20010904/DTD/svg10.dtd">
<svg version="1.0" xmlns="http://www.w3.org/2000/svg"
 width="2732.000000pt" height="2732.000000pt" viewBox="0 0 2732.000000 2732.000000"
 preserveAspectRatio="xMidYMid meet">
<metadata>
Created by potrace 1.14, written by Peter Selinger 2001-2017
</metadata>
<g transform="translate(0.000000,2732.000000) scale(0.100000,-0.100000)"
fill="#000000" stroke="none">
<path d="M9677 17673 c-4 -3 -7 -26 -7 -50 l0 -43 -240 0 -240 0 0 -34 0 -34
-157 -1 c-86 -1 -160 -4 -165 -7 -4 -3 -8 -25 -8 -50 l0 -44 -85 0 -85 0 0
-50 0 -50 -104 0 -103 0 5 -25 c4 -25 4 -25 -72 -25 l-76 0 0 -40 0 -40 -90 0
-90 0 0 -50 0 -50 -100 0 -100 0 0 -50 0 -50 -35 0 -35 0 0 -50 0 -50 -55 0
c-39 0 -55 -4 -54 -12 7 -55 4 -57 -86 -57 -94 0 -105 -3 -105 -32 0 -10 -7
-19 -15 -19 -11 0 -15 -12 -15 -50 l0 -50 -50 0 -50 0 0 -50 0 -50 -50 0 -50
0 0 -40 0 -40 -50 0 -50 0 0 -50 0 -50 -40 0 -40 0 -1 -52 c-1 -29 -1 -59 0
-65 1 -7 -8 -13 -21 -14 -22 0 -22 -1 -3 -10 15 -7 8 -8 -27 -6 l-48 2 0 -53
0 -54 -50 4 -50 3 0 -37 0 -38 -50 0 -50 0 0 -105 0 -105 -38 0 c-38 0 -38 0
-34 -35 6 -54 -4 -85 -28 -80 -19 4 -20 -2 -20 -102 l0 -105 -50 4 -50 3 -1
-55 c-1 -30 0 -72 1 -92 l2 -38 -51 0 -51 0 0 -75 0 -75 -40 0 -40 0 0 -135 0
-135 -34 0 c-68 0 -66 4 -66 -171 l0 -158 -47 -3 -48 -3 -3 -347 -2 -348 -25
0 c-23 0 -25 -3 -25 -49 0 -27 -5 -51 -10 -53 -6 -2 -11 -49 -12 -113 -1 -61
-4 -91 -6 -67 -4 52 -22 56 -22 5 0 -54 11 -88 21 -71 5 8 9 -26 10 -82 1 -60
4 -86 9 -70 7 23 7 23 11 -10 2 -19 8 -33 12 -30 5 3 15 -6 22 -20 11 -20 14
-93 15 -355 0 -181 4 -336 8 -343 5 -7 26 -14 48 -15 l39 -2 3 -192 2 -193 50
0 50 0 0 -110 0 -110 40 0 40 0 0 -100 0 -100 50 0 50 0 0 -92 0 -93 47 0 48
0 3 -72 c3 -65 5 -72 25 -75 23 -3 24 -7 26 -130 1 -37 2 -38 36 -38 l35 0 0
-100 0 -100 50 0 c47 0 50 -2 50 -25 0 -23 3 -25 50 -25 l50 0 1 -62 c0 -35 3
-57 6 -50 5 14 61 16 81 3 8 -4 13 -21 12 -37 -1 -16 -2 -53 -1 -81 l1 -53 40
0 40 0 0 -50 0 -50 50 0 50 0 0 -50 0 -50 50 0 c35 0 49 -4 48 -12 -2 -9 14
-14 50 -16 l52 -3 0 -50 c0 -37 4 -49 15 -49 11 0 15 -12 15 -50 l0 -50 50 0
c29 0 50 -5 50 -11 0 -6 5 -7 13 -2 19 12 37 12 37 1 0 -6 -7 -8 -15 -4 -8 3
-15 1 -15 -4 0 -6 9 -10 20 -10 11 0 20 -4 20 -10 0 -5 8 -10 18 -10 13 0 18
-8 17 -27 0 -26 3 -28 32 -25 55 6 76 -6 71 -39 -4 -28 -3 -29 34 -29 l38 0 0
-50 0 -50 100 0 100 0 0 -25 c0 -23 4 -25 53 -27 28 0 60 -1 70 0 10 1 17 -5
18 -16 0 -9 3 -12 5 -5 3 7 12 9 20 6 13 -5 13 -7 2 -14 -11 -7 -11 -9 1 -9
11 0 11 -3 0 -17 -12 -14 -12 -15 0 -9 10 7 12 3 6 -13 -5 -18 -2 -21 24 -21
30 0 31 -1 31 -50 l0 -50 101 0 101 0 -4 -40 c-4 -46 -21 -42 165 -40 59 1
107 -3 106 -7 -1 -4 -1 -27 0 -50 l1 -43 141 0 141 0 -4 -25 -5 -25 201 -2
c110 0 208 -1 216 -2 10 -1 17 -15 20 -41 4 -30 9 -40 23 -39 9 1 17 -2 17 -6
0 -12 1341 -13 1372 -1 18 7 29 6 37 -2 8 -8 11 -6 11 8 0 15 3 16 12 7 20
-20 27 -14 30 31 l3 42 188 3 187 2 0 25 0 25 160 0 160 0 0 50 0 50 93 -2
c55 0 95 -5 99 -12 7 -10 10 -3 7 21 0 4 8 10 18 14 17 7 17 8 1 8 -22 1 -23
17 -2 38 13 14 17 14 25 2 5 -8 9 -9 9 -3 0 12 99 12 119 0 6 -4 11 -3 11 3 0
5 21 11 48 13 l47 3 3 47 3 47 82 -2 82 -2 0 43 c0 23 4 42 8 42 5 0 6 4 2 10
-3 5 7 8 22 7 25 -2 28 1 25 26 -3 28 -3 29 50 26 29 -1 56 -7 60 -13 5 -7 8
-7 8 2 0 8 16 12 44 12 l44 0 -3 40 c-1 25 2 40 9 40 6 0 4 5 -4 10 -13 8 -13
10 2 10 9 0 20 -5 24 -11 4 -8 9 -7 15 2 7 10 11 11 17 3 5 -9 11 -8 20 2 7 8
9 14 4 14 -5 0 -7 11 -5 24 5 26 35 45 41 27 2 -6 8 -11 13 -11 6 0 7 4 4 10
-3 5 2 9 12 8 10 0 44 0 76 0 l58 2 -6 51 -6 51 51 -4 c29 -2 50 1 51 7 0 6 0
29 -1 53 l-2 42 41 0 41 0 0 51 0 50 50 -4 c44 -4 50 -2 50 14 0 14 7 19 25
19 23 0 25 3 25 50 l0 50 53 0 52 0 -4 51 c-3 44 -1 50 15 47 11 -2 18 2 17 9
-3 12 15 12 35 -1 21 -13 30 4 33 59 2 28 8 53 13 57 7 5 7 8 -1 8 -7 0 -13
11 -13 25 0 20 5 25 25 25 17 0 25 -6 25 -17 0 -15 1 -15 13 1 7 9 12 39 11
67 l-2 49 66 1 c37 0 60 3 52 7 -24 11 -24 43 -1 49 12 3 21 10 21 15 0 5 -5
6 -11 2 -8 -4 -9 0 -4 15 9 28 -3 27 -15 -1 -9 -21 -9 -20 -7 7 1 22 7 30 20
29 9 -1 17 5 18 15 1 9 4 6 9 -9 l8 -25 1 25 c1 14 5 21 9 15 4 -5 14 -11 22
-12 12 -2 15 10 15 60 l0 62 45 6 c25 3 38 7 30 8 -13 1 -13 3 -1 10 11 7 9
10 -10 14 -23 4 -22 4 4 6 26 1 27 3 27 61 0 46 3 60 15 60 9 0 16 14 20 38
11 62 13 66 30 52 18 -15 18 -14 16 78 -1 34 2 62 6 61 5 -1 28 -1 53 0 l45 1
-3 100 -4 100 27 0 c25 0 26 2 24 48 -1 26 -1 97 0 159 l1 112 53 3 c51 3 52
3 52 36 0 17 4 32 10 32 5 0 3 5 -5 11 -11 8 -12 12 -2 16 6 2 9 10 5 16 -12
20 -12 37 0 37 7 0 6 5 -3 10 -13 9 -13 11 0 20 13 9 13 11 0 20 -12 8 -13 14
-2 42 8 21 9 34 2 36 -5 2 -10 8 -10 13 0 6 3 8 8 6 4 -3 5 15 3 39 l-3 44
-759 0 -759 0 0 -50 c0 -33 -4 -50 -12 -50 -10 0 -10 -2 -1 -8 6 -4 10 -23 8
-42 -2 -19 -4 -38 -4 -42 -1 -5 -22 -8 -48 -8 l-48 0 2 -140 3 -140 -50 0 -50
0 0 -60 c0 -57 -1 -60 -25 -60 l-25 0 0 -100 0 -100 -35 0 -35 0 0 -50 0 -50
-52 0 -53 0 1 -40 2 -40 -50 0 c-45 0 -50 -2 -45 -20 3 -11 2 -22 -2 -25 -4
-2 -6 -18 -3 -36 3 -22 1 -30 -7 -25 -6 4 -11 18 -11 32 0 25 -14 32 -26 12
-4 -7 -3 -8 4 -4 9 5 12 -6 12 -38 0 -46 -13 -59 -36 -36 -7 7 -20 6 -40 -5
-16 -8 -39 -15 -51 -15 -21 0 -23 -5 -23 -46 l0 -46 -43 3 c-55 4 -65 -4 -61
-41 3 -27 1 -31 -19 -30 -12 1 -35 2 -52 1 -29 -1 -30 -2 -28 -49 l2 -48 -55
-1 c-30 0 -57 -2 -59 -5 -2 -2 -5 -25 -6 -52 l-3 -48 -50 4 c-48 3 -51 2 -51
-22 l0 -25 -124 -2 c-68 -1 -130 -4 -137 -7 -9 -3 -14 -22 -14 -51 l0 -45
-116 0 c-74 0 -113 -4 -109 -10 3 -5 1 -10 -4 -10 -6 0 -11 5 -11 10 0 6 -11
10 -25 10 -20 0 -25 -5 -25 -24 0 -61 55 -57 -708 -55 -445 0 -690 4 -679 11
9 5 17 16 17 24 0 8 -5 12 -10 9 -6 -4 -8 -11 -5 -16 4 -5 -1 -9 -10 -9 -13 0
-15 6 -10 30 l7 30 -59 1 c-32 0 -89 0 -128 0 -100 -1 -105 2 -105 57 l0 47
-75 -3 c-75 -4 -75 -4 -75 22 l0 26 -90 0 -90 0 0 50 0 50 -52 2 c-29 0 -64 0
-77 -1 -14 -1 -35 0 -47 3 -20 5 -23 12 -20 51 l2 45 -38 0 c-37 0 -38 1 -38
38 l0 37 -50 -3 -50 -4 0 54 0 53 -51 -4 -51 -3 3 53 3 53 -52 -3 c-50 -2 -52
-1 -52 23 0 21 -5 26 -26 26 -23 0 -25 3 -24 38 1 20 2 61 1 90 l-1 52 -41 0
-41 0 4 50 3 50 -52 0 -53 0 0 85 0 85 -50 0 -50 0 0 74 0 75 -47 3 -48 3 -2
50 c-1 28 -3 83 -4 122 -3 72 -8 94 -25 95 -42 4 -45 9 -44 82 1 39 1 112 1
162 l-1 91 -27 0 c-16 0 -38 1 -50 2 l-23 1 0 725 0 725 33 1 c17 1 37 1 43 0
15 -2 24 93 24 250 0 116 2 129 18 129 14 0 14 2 3 9 -23 15 -5 44 24 39 l25
-5 0 103 0 104 53 0 52 0 -3 85 -3 85 50 0 51 0 0 76 0 76 43 -2 c23 -1 47 -1
52 -1 6 1 9 22 7 51 l-4 50 41 0 41 0 1 43 c1 23 1 63 0 90 -1 45 1 47 27 47
26 0 27 1 23 51 l-3 51 51 -3 51 -4 0 53 0 52 56 0 c38 0 53 3 48 11 -4 8 9
10 45 8 l51 -4 0 53 0 52 38 0 37 0 0 52 c0 60 -13 54 123 57 l72 1 0 50 0 50
90 0 c65 0 90 4 91 13 1 6 2 17 4 22 1 6 3 16 3 23 2 8 23 12 71 12 l70 0 3
48 3 47 138 3 c117 2 137 5 137 18 0 11 6 15 20 11 27 -7 25 2 -2 12 -17 6 -9
8 32 8 162 -2 619 6 643 10 16 3 24 9 19 12 -5 3 -7 20 -5 38 4 25 10 32 34
35 28 4 29 3 29 -34 0 -23 -5 -38 -12 -39 -7 -1 5 -5 27 -10 22 -4 169 -8 328
-8 l287 -1 0 -25 0 -25 150 0 150 0 0 -44 c0 -25 5 -48 10 -51 6 -4 62 -6 124
-6 63 1 121 -2 130 -5 9 -4 16 -18 16 -35 0 -27 2 -28 53 -31 l52 -3 -1 -47
c0 -28 4 -48 10 -49 6 0 32 0 58 1 l47 1 -2 -55 -3 -56 54 0 54 0 -4 -50 -4
-50 40 -1 c23 0 50 -3 61 -5 11 -3 34 -7 50 -9 17 -2 30 -4 30 -5 0 -1 18 -2
40 -3 22 -2 45 -6 51 -10 7 -4 12 -38 12 -87 1 -44 4 -85 7 -90 3 -6 26 -10
51 -10 l44 0 0 -52 0 -53 50 3 50 4 0 -44 c0 -42 1 -43 33 -43 l32 0 3 -72 c3
-71 4 -73 28 -73 l26 0 -4 -100 -3 -99 50 -3 50 -3 0 -133 0 -132 53 0 c49 0
53 -2 52 -22 -1 -13 -2 -42 -1 -66 l1 -42 756 2 757 3 -1 45 c0 25 0 98 -1
163 l-1 117 -50 0 -50 0 0 135 c0 74 -4 135 -9 135 -4 0 -6 11 -3 25 3 20 0
25 -17 25 -21 0 -22 4 -19 90 l3 90 -52 0 -51 0 0 43 c0 161 -1 166 -24 165
-47 -2 -58 2 -58 22 0 13 7 20 20 20 11 0 20 5 20 11 0 5 -4 8 -8 5 -4 -2 -14
-1 -22 5 -10 6 -11 9 -2 9 6 0 12 5 12 11 0 5 -5 7 -11 4 -6 -4 -9 0 -7 11 2
15 -3 19 -27 18 -18 -1 -21 1 -8 3 12 2 24 11 27 19 4 11 -5 14 -37 16 -40 1
-41 1 -7 5 19 3 40 9 45 14 7 7 7 10 0 9 -5 -2 -17 -2 -25 0 -11 1 -9 4 5 9
15 6 9 10 -28 15 l-49 7 4 55 3 54 -46 0 c-56 0 -59 5 -59 101 l0 69 -51 0
-51 0 4 50 3 50 -37 0 c-35 0 -38 2 -38 29 0 24 -4 28 -19 24 -12 -3 -24 3
-34 17 -11 15 -16 18 -20 8 -3 -7 -6 6 -6 30 -1 23 -5 42 -10 42 -6 0 -11 23
-13 52 l-3 52 -47 -3 -48 -3 0 45 c0 41 -2 44 -23 40 -22 -4 -24 -2 -22 39 2
58 -6 67 -60 60 l-45 -5 0 52 0 51 -39 0 c-33 0 -40 4 -43 23 -2 18 -11 23
-48 27 -44 5 -50 10 -53 52 -1 19 -31 22 -149 18 l-48 -1 0 50 0 51 -36 0
c-19 0 -42 7 -50 15 -9 9 -11 15 -4 15 7 0 10 13 8 33 l-3 32 -97 3 -98 3 0
49 c0 49 -1 50 -30 50 -28 0 -30 2 -32 43 l-1 42 -4 -37 c-4 -40 -26 -54 -23
-15 5 59 -17 68 -23 10 l-4 -38 -1 38 -2 37 -99 0 -98 0 2 25 3 25 -94 0 -94
0 0 50 0 50 -99 0 -100 0 -3 48 -3 47 -157 3 -158 3 0 34 0 35 -227 1 c-126 1
-234 1 -240 0 -8 -1 -13 11 -13 33 0 72 57 66 -649 66 -351 0 -641 -3 -644 -7z
m686 -1335 c3 -21 2 -38 -4 -38 -5 0 -9 19 -9 42 0 49 5 47 13 -4z m3054 -54
c-3 -3 -12 -4 -19 -1 -8 3 -5 6 6 6 11 1 17 -2 13 -5z m-7064 -3635 c-12 -4
-32 -5 -45 -1 l-23 6 25 6 c14 4 34 4 44 2 19 -5 19 -6 -1 -13z m7504 -1131
c-2 -13 -4 -5 -4 17 -1 22 1 32 4 23 2 -10 2 -28 0 -40z m-1822 -48 c-3 -5
-14 -10 -23 -9 -14 0 -13 2 3 9 27 11 27 11 20 0z m-4250 -1140 c3 -5 -1 -10
-9 -10 -9 0 -16 5 -16 10 0 6 4 10 9 10 6 0 13 -4 16 -10z"/>
<path d="M17640 17630 c0 -35 -4 -50 -12 -49 -7 1 -104 1 -215 0 l-203 -1 0
-35 0 -35 -124 0 c-142 0 -140 1 -144 -72 l-2 -28 -90 0 -90 0 0 -50 0 -50
-100 0 -100 0 0 -25 c0 -23 -3 -25 -52 -26 -29 -1 -59 -1 -65 0 -9 1 -13 -12
-13 -39 l0 -40 -50 0 -50 0 0 -50 0 -50 -52 0 -53 0 0 -47 0 -48 -50 -1 -50
-1 3 -36 c4 -44 -14 -66 -54 -66 -16 -1 -40 -3 -54 -5 -14 -2 -31 -4 -38 -5
-7 0 -10 -6 -7 -12 4 -6 -2 -13 -14 -16 -28 -7 -27 -22 2 -16 19 4 20 3 5 -7
-10 -6 -18 -22 -18 -35 0 -21 -5 -25 -27 -25 -28 0 -71 20 -45 20 6 0 11 10
11 23 -1 19 -2 19 -6 3 -4 -15 -7 -16 -14 -5 -5 9 -9 -15 -9 -63 l0 -78 -50 0
-50 0 0 -50 0 -50 -40 0 -40 0 0 -90 c0 -89 0 -90 -25 -90 -23 0 -25 -3 -26
-52 -1 -29 0 -63 1 -75 1 -21 -3 -23 -52 -23 l-53 0 3 -107 c1 -67 -2 -118 -9
-136 -11 -26 -16 -28 -51 -25 l-38 4 0 -223 c0 -173 -3 -222 -12 -221 -7 2
-12 -4 -12 -13 1 -9 -4 -16 -11 -16 -7 0 -11 6 -8 14 3 7 1 13 -5 13 -5 0 -12
-9 -15 -20 -4 -16 0 -20 19 -20 13 0 24 -4 24 -10 0 -5 -9 -10 -20 -10 -11 0
-20 -7 -20 -15 0 -9 -6 -12 -15 -9 -11 5 -13 10 -5 19 7 9 8 15 1 19 -6 4 -7
14 -4 23 4 11 3 14 -5 9 -15 -9 -17 -276 -2 -276 6 0 10 3 10 8 0 4 18 7 40 7
l40 0 0 -282 0 -282 48 -3 47 -3 3 -137 3 -138 49 0 50 0 0 -89 0 -88 25 5 25
4 0 -81 0 -81 40 0 40 0 0 -50 0 -50 50 0 50 0 0 -35 0 -35 50 0 50 0 0 -50 0
-50 50 0 50 0 0 -54 0 -55 35 6 c34 6 36 5 31 -21 -5 -29 -3 -30 62 -26 36 1
42 -1 42 -18 0 -11 8 -23 18 -25 14 -4 14 -5 1 -6 -12 -1 -15 -8 -11 -26 4
-25 6 -25 98 -25 l94 0 0 -40 0 -40 65 0 65 0 0 -50 0 -49 103 -3 102 -3 -3
-55 c-2 -30 1 -50 5 -45 4 6 19 9 33 8 14 -2 73 -3 133 -3 l107 0 0 -50 0 -50
160 0 c100 0 160 -4 160 -10 0 -6 70 -10 190 -10 l190 0 0 -50 0 -49 158 -3
157 -3 3 -54 3 -53 188 6 187 6 2 -37 c3 -43 23 -63 61 -63 14 1 92 1 174 1
122 0 147 -3 147 -15 0 -8 -6 -17 -12 -19 -10 -4 -10 -6 0 -6 6 -1 12 -10 12
-21 0 -23 2 -23 133 -20 l87 2 0 -51 0 -51 101 0 c96 0 101 -1 96 -20 -6 -22
16 -33 61 -30 15 1 49 2 75 1 l49 -1 -3 -47 -3 -48 52 -3 c56 -3 58 -7 52 -80
-1 -22 2 -23 42 -22 24 1 48 1 53 0 6 -1 19 -3 30 -4 21 -1 22 -7 24 -126 l1
-56 35 4 34 4 3 -73 3 -74 48 -3 47 -3 -1 -247 c-1 -136 -5 -258 -9 -272 -8
-24 -8 -24 -9 -2 -1 12 -7 22 -15 22 -8 0 -12 -8 -9 -23 3 -14 -2 -29 -11 -36
-9 -8 -16 -10 -16 -5 0 5 -7 -2 -16 -15 -12 -16 -16 -43 -16 -90 1 -92 -4
-104 -39 -99 -29 5 -29 4 -29 -49 0 -50 -1 -53 -25 -53 -23 0 -25 -3 -25 -50
l0 -50 -50 0 c-47 0 -50 -2 -50 -25 0 -24 -2 -25 -67 -26 -38 0 -77 -4 -88 -9
-11 -5 -14 -9 -7 -9 6 -1 12 -8 12 -17 0 -9 -5 -12 -12 -8 -7 4 -8 3 -4 -4 4
-7 1 -12 -6 -12 -7 -1 -3 -6 10 -13 12 -7 19 -16 16 -20 -11 -11 -26 -8 -19 3
3 6 1 10 -4 10 -6 0 -11 -5 -11 -11 0 -6 -21 -9 -53 -8 -29 1 -63 -4 -77 -11
-14 -8 -31 -13 -37 -12 -8 2 -10 -4 -6 -15 6 -16 5 -16 -10 -4 -15 12 -17 11
-17 -13 l0 -26 -136 0 c-134 0 -135 0 -134 -22 1 -13 2 -35 1 -51 l-1 -27
-666 0 -667 1 6 49 6 50 -47 1 c-26 0 -88 0 -139 -1 -82 -1 -92 1 -98 18 -3
11 -4 32 -1 46 4 23 2 25 -24 20 -15 -4 -31 -1 -34 5 -4 6 -16 11 -26 11 -11
0 -24 9 -30 19 -14 28 -13 31 13 32 21 0 21 1 2 9 -17 7 -16 9 9 9 16 1 27 4
23 7 -3 4 -40 6 -82 6 -73 -1 -75 -1 -75 23 0 23 -3 25 -51 25 l-51 0 4 50 3
50 -52 0 -53 0 0 50 0 50 -41 0 c-41 0 -41 0 -37 35 l4 35 -48 0 c-46 0 -47 1
-54 37 -4 23 -2 43 5 56 9 14 9 17 1 12 -9 -6 -11 6 -9 44 2 29 0 51 -6 52 -5
0 -29 0 -52 -1 l-43 -2 0 116 0 116 -50 0 -51 0 1 128 c1 70 1 142 1 160 l-1
32 -712 0 c-464 0 -708 -4 -698 -10 13 -9 13 -10 0 -10 -13 0 -13 -1 0 -10 13
-9 13 -11 0 -20 -12 -8 -12 -10 -1 -10 11 0 11 -3 0 -17 -10 -11 -10 -14 -1
-9 15 9 17 -37 2 -65 -6 -10 -7 -19 -2 -19 5 0 9 -10 9 -22 1 -13 1 -98 2
-190 l1 -168 50 0 49 0 0 -94 c0 -90 -1 -95 -22 -99 -20 -4 -20 -4 -2 -6 18
-1 21 -9 23 -73 1 -39 5 -75 9 -79 9 -9 44 -17 76 -18 17 -1 18 -8 14 -76 l-4
-75 39 0 39 0 -1 -47 c-1 -27 -1 -67 -1 -90 l1 -43 51 0 c42 0 50 -3 48 -17
-1 -10 -1 -56 0 -103 l1 -85 51 4 51 3 -2 -48 c-3 -68 -1 -84 10 -84 5 0 7 8
3 18 -6 16 -5 16 13 1 22 -19 58 -33 50 -20 -3 5 0 11 8 14 8 3 13 -1 13 -11
0 -94 2 -102 28 -102 23 0 25 -3 25 -50 l0 -50 40 0 40 0 0 -50 0 -50 50 0
c49 0 50 -1 50 -30 0 -17 -5 -30 -12 -30 -10 0 -9 -3 1 -9 7 -5 35 -7 62 -4
l49 4 0 -56 0 -55 51 4 c40 4 50 2 46 -9 -6 -13 22 -45 39 -45 5 0 2 5 -6 11
-12 9 -12 10 3 5 10 -3 22 -6 26 -6 4 0 14 -12 21 -27 l13 -28 13 30 c10 25
14 27 19 13 4 -10 11 -18 16 -18 4 0 6 7 3 15 -5 11 -2 13 11 9 13 -5 16 -17
13 -52 l-3 -46 45 2 c25 2 56 -1 70 -7 14 -5 20 -10 14 -10 -6 -1 -11 -14 -12
-31 -1 -26 3 -30 36 -36 42 -8 81 -33 82 -52 0 -32 28 -42 114 -42 l86 0 0
-50 0 -50 190 0 190 0 0 -25 0 -25 118 -1 c64 0 136 0 160 1 42 1 42 1 42 -33
l0 -34 68 -6 c80 -8 93 -10 108 -20 6 -3 298 -6 648 -6 521 1 636 3 636 14 0
8 10 15 23 17 17 2 23 11 25 36 l3 32 210 0 c179 0 209 2 209 15 0 8 -4 15
-10 15 -5 0 -10 3 -10 8 0 4 12 7 28 8 15 0 93 1 175 2 l147 2 0 50 0 50 110
0 c89 0 110 3 110 14 0 11 -15 16 -52 19 l-53 3 53 2 c45 2 52 5 52 22 0 19 7
20 105 20 l105 0 0 50 0 50 53 2 c28 1 59 2 67 4 8 1 24 2 35 3 11 1 16 4 10
9 -14 10 -20 76 -6 68 6 -4 11 -2 11 3 0 6 21 11 50 11 47 0 50 2 50 25 0 24
2 25 75 25 l75 0 0 50 0 50 43 0 43 0 -4 36 -4 36 51 -3 51 -4 0 53 0 52 50 0
50 0 0 50 0 50 50 0 50 0 0 50 0 50 35 0 c38 0 38 -1 35 83 l-1 47 53 0 53 0
-3 50 -4 50 51 0 51 0 0 89 0 90 43 3 c39 3 42 5 42 31 -1 15 3 27 7 27 4 0 8
43 8 95 0 78 3 95 15 95 13 0 15 35 15 253 l0 252 48 0 47 0 2 148 2 147 -50
0 -49 0 0 261 c0 170 -3 258 -10 254 -7 -4 -7 3 0 20 14 38 12 65 -5 65 -12 0
-15 19 -15 115 l0 115 -50 0 -50 0 0 50 0 50 -44 0 c-35 0 -45 4 -49 20 -3 11
0 20 6 20 8 0 8 3 -1 8 -7 5 -12 17 -11 28 1 10 1 43 1 72 l-2 52 -50 0 -50 0
0 34 c0 21 -6 36 -15 40 -8 3 -15 12 -15 21 0 35 -19 12 -23 -27 l-4 -43 -1
47 c-1 33 -7 50 -19 57 -10 6 -12 11 -5 11 6 0 12 11 12 24 0 47 -10 56 -56
56 l-44 0 0 50 c0 27 -3 49 -7 49 -5 -1 -27 -1 -50 0 -41 1 -42 2 -45 39 l-3
37 -88 3 -89 3 4 49 c3 49 2 50 -24 50 -23 0 -28 4 -28 25 0 25 -1 25 -87 25
-49 0 -94 4 -102 9 -9 6 -12 22 -9 50 l4 41 -88 0 -88 0 0 50 0 50 -105 0
-105 0 0 35 0 35 -52 1 c-29 1 -68 0 -85 -1 -31 -1 -33 0 -33 34 0 27 -3 34
-15 30 -10 -4 -15 0 -15 15 0 20 -5 21 -115 21 l-115 0 5 29 c3 17 1 33 -5 36
-5 3 -10 -3 -10 -14 0 -16 -6 -21 -24 -21 -26 0 -47 21 -28 28 7 2 12 8 12 13
0 6 -4 7 -10 4 -5 -3 -10 0 -10 9 0 8 6 17 13 19 6 3 -26 6 -73 7 -62 1 -80 4
-65 11 17 8 16 8 -5 3 -14 -3 -58 -8 -97 -11 -72 -5 -73 -5 -73 20 0 22 -5 25
-45 29 -25 3 -115 3 -200 0 l-155 -5 0 37 0 36 -185 0 -185 0 0 40 c0 29 -5
42 -19 50 -11 6 -89 10 -180 10 l-161 0 -1 43 c-1 23 -1 45 0 50 0 4 -60 7
-133 7 l-135 0 -3 48 -3 47 -137 3 -138 3 0 39 0 40 -75 0 c-73 0 -75 1 -75
25 0 22 -4 25 -35 25 l-35 0 0 50 0 50 -50 0 -50 0 0 50 0 50 -50 0 -50 0 0
35 0 35 -50 0 -50 0 0 180 0 180 -35 0 c-33 0 -35 2 -34 33 1 29 2 30 8 7 4
-17 13 -25 28 -25 13 0 23 5 22 10 0 6 -9 9 -19 7 -12 -2 -20 2 -20 11 0 8 10
13 23 13 22 -1 22 0 25 156 l2 156 28 10 c15 5 37 8 49 6 25 -4 31 9 27 56 -3
45 4 72 18 64 8 -5 9 -1 5 9 -4 10 -10 24 -14 34 -4 11 -3 14 5 9 7 -4 12 -1
12 8 0 9 8 16 19 16 43 0 51 10 51 66 l0 54 50 0 c48 0 50 1 51 28 1 15 1 31
0 35 -1 5 15 7 36 5 38 -3 38 -3 36 32 l-2 35 9 -35 c7 -28 6 -37 -7 -47 -9
-7 -12 -13 -6 -13 23 0 35 31 31 79 -2 39 0 47 10 39 7 -6 12 -6 12 -1 0 5 13
8 28 5 16 -2 46 3 66 12 21 9 49 16 61 16 12 0 28 7 35 15 10 12 31 15 97 12
52 -3 86 0 90 7 4 5 6 29 4 53 l-3 43 591 0 591 0 0 -51 c0 -43 3 -50 16 -45
9 3 20 3 26 0 5 -4 47 -7 92 -8 76 -1 81 -2 84 -23 3 -22 7 -23 104 -23 l100
0 -4 -50 -3 -50 53 0 52 0 0 -35 c0 -34 1 -35 39 -35 40 0 40 0 43 -42 l3 -43
48 -3 47 -3 0 -60 0 -59 50 0 50 0 0 -50 c0 -47 2 -50 25 -50 24 0 25 -2 25
-63 l0 -62 33 0 32 0 3 -212 2 -213 50 0 50 0 0 -100 0 -100 690 0 690 0 0 50
c0 38 4 50 15 50 11 0 15 12 15 44 0 30 -5 46 -15 50 -13 5 -15 44 -15 274 l0
269 -50 -5 -50 -5 0 167 0 166 -50 0 -50 0 0 85 0 85 -50 0 -50 0 0 75 0 75
-35 0 -35 0 0 90 0 90 -50 0 -50 0 0 50 0 50 -50 0 -50 0 -1 63 c0 34 -3 56
-6 50 -6 -15 -59 -17 -68 -3 -4 6 -10 8 -14 6 -4 -3 -8 1 -8 9 0 8 5 11 11 8
6 -3 5 0 -1 8 -7 7 -13 28 -13 46 0 32 -1 33 -40 33 l-40 0 0 49 c0 48 0 48
-37 55 -21 3 -55 6 -76 6 -37 0 -38 1 -35 35 2 33 4 35 39 35 21 0 40 -5 42
-10 3 -6 4 -5 3 2 -2 9 -34 17 -92 23 l-89 10 -3 48 -3 47 -50 0 -49 0 0 40 0
40 -91 0 c-81 0 -90 2 -87 18 2 11 14 18 33 20 33 4 25 -12 -10 -21 -16 -4
-14 -5 6 -6 27 -1 47 23 28 34 -5 4 -64 7 -129 7 -66 0 -121 3 -121 6 -7 30
-4 82 4 82 6 0 7 3 4 7 -4 3 -34 6 -67 5 -56 0 -60 1 -66 24 -4 13 -4 36 -2
49 l5 25 -128 0 c-70 0 -134 3 -143 6 -10 4 -16 18 -16 35 l0 29 -185 0 -185
0 0 50 0 50 -665 0 -665 0 0 -50z m-653 -148 c-10 -2 -14 -9 -11 -15 5 -9 4
-9 -6 0 -17 15 -4 34 18 25 16 -6 16 -7 -1 -10z m-967 -633 c0 -5 -8 -9 -17
-8 -11 0 -13 3 -5 6 6 2 9 10 6 15 -4 7 -2 8 4 4 7 -4 12 -11 12 -17z m7 -25
c-3 -3 -12 -4 -19 -1 -8 3 -5 6 6 6 11 1 17 -2 13 -5z m1401 -561 c-10 -2 -28
-2 -40 0 -13 2 -5 4 17 4 22 1 32 -1 23 -4z m829 -1945 c-2 -13 -4 -3 -4 22 0
25 2 35 4 23 2 -13 2 -33 0 -45z m1398 -318 c3 -5 1 -10 -4 -10 -6 0 -11 5
-11 10 0 6 2 10 4 10 3 0 8 -4 11 -10z m-3352 -397 c-7 -2 -19 -2 -25 0 -7 3
-2 5 12 5 14 0 19 -2 13 -5z m2194 -735 c-3 -8 -6 -5 -6 6 -1 11 2 17 5 13 3
-3 4 -12 1 -19z m1296 -1375 c-7 -2 -19 -2 -25 0 -7 3 -2 5 12 5 14 0 19 -2
13 -5z m-4573 -197 c0 -2 -7 -7 -16 -10 -8 -3 -12 -2 -9 4 6 10 25 14 25 6z
m4183 -243 c-15 -5 -18 -33 -4 -33 5 0 12 6 14 13 3 7 6 4 6 -7 1 -14 -4 -17
-19 -13 -11 3 -20 1 -20 -4 0 -5 -5 -9 -12 -9 -9 0 -9 3 0 12 7 7 12 20 12 30
0 11 7 18 18 17 10 0 12 -3 5 -6z m1780 -50 c-13 -2 -33 -2 -45 0 -13 2 -3 4
22 4 25 0 35 -2 23 -4z m10 -20 c-7 -2 -21 -2 -30 0 -10 3 -4 5 12 5 17 0 24
-2 18 -5z m-4000 -10 c-7 -2 -19 -2 -25 0 -7 3 -2 5 12 5 14 0 19 -2 13 -5z
m2044 -43 c4 -12 3 -13 -5 -1 -8 11 -11 10 -14 -5 -3 -17 -5 -16 -10 4 -5 18
-3 22 9 20 9 -2 18 -10 20 -18z m-47 -24 c0 -2 -7 -6 -15 -10 -8 -3 -15 -1
-15 4 0 6 7 10 15 10 8 0 15 -2 15 -4z m-3600 -326 c0 -5 -4 -10 -10 -10 -5 0
-10 5 -10 10 0 6 5 10 10 10 6 0 10 -4 10 -10z m4593 -607 c-4 -11 -8 -13 -11
-5 -2 7 -8 10 -13 6 -5 -3 -9 0 -9 5 0 6 9 11 20 11 14 0 18 -5 13 -17z
m-3786 -58 c0 -19 -28 -29 -41 -14 -8 9 -6 10 8 5 14 -5 17 -2 12 9 -3 9 0 15
8 15 7 0 13 -7 13 -15z m30 -51 c-3 -3 -12 -4 -19 -1 -8 3 -5 6 6 6 11 1 17
-2 13 -5z m2846 -241 c-7 -2 -19 -2 -25 0 -7 3 -2 5 12 5 14 0 19 -2 13 -5z"/>
<path d="M16070 16909 c0 -5 4 -8 9 -5 5 4 11 2 13 -3 1 -5 9 -3 16 5 11 12 9
14 -13 14 -14 0 -25 -5 -25 -11z"/>
<path d="M15930 16791 c0 -5 -8 -12 -17 -14 -14 -4 -12 -5 5 -6 13 -1 22 5 22
14 0 8 -2 15 -5 15 -3 0 -5 -4 -5 -9z"/>
<path d="M10321 16344 c0 -11 3 -14 6 -6 3 7 2 16 -1 19 -3 4 -6 -2 -5 -13z"/>
<path d="M13441 16304 c0 -11 3 -14 6 -6 3 7 2 16 -1 19 -3 4 -6 -2 -5 -13z"/>
<path d="M17250 16171 c0 -17 4 -32 8 -35 4 -2 6 11 4 30 -5 42 -12 45 -12 5z"/>
<path d="M13886 15658 c3 -4 14 -8 25 -8 11 0 18 4 14 9 -3 6 -14 9 -25 8 -10
-1 -16 -5 -14 -9z"/>
<path d="M15390 15209 c0 -5 5 -7 10 -4 6 3 10 8 10 11 0 2 -4 4 -10 4 -5 0
-10 -5 -10 -11z"/>
<path d="M18837 14269 c7 -7 15 -10 18 -7 3 3 -2 9 -12 12 -14 6 -15 5 -6 -5z"/>
<path d="M16211 13624 c0 -11 3 -14 6 -6 3 7 2 16 -1 19 -3 4 -6 -2 -5 -13z"/>
<path d="M14218 12503 c7 -3 16 -2 19 1 4 3 -2 6 -13 5 -11 0 -14 -3 -6 -6z"/>
<path d="M14208 12483 c6 -2 18 -2 25 0 6 3 1 5 -13 5 -14 0 -19 -2 -12 -5z"/>
<path d="M14211 12394 c0 -11 3 -14 6 -6 3 7 2 16 -1 19 -3 4 -6 -2 -5 -13z"/>
<path d="M14187 12205 c-4 -8 -2 -17 3 -20 6 -4 10 3 10 14 0 25 -6 27 -13 6z"/>
<path d="M13903 11540 c0 -25 2 -35 4 -22 2 12 2 32 0 45 -2 12 -4 2 -4 -23z"/>
<path d="M13728 11183 c7 -3 16 -2 19 1 4 3 -2 6 -13 5 -11 0 -14 -3 -6 -6z"/>
<path d="M15212 11164 c-14 -16 -5 -18 17 -5 7 5 9 11 5 14 -5 3 -15 -1 -22
-9z"/>
<path d="M7697 10314 c-8 -9 1 -24 14 -24 6 0 7 5 3 11 -4 8 0 8 15 0 11 -7
21 -19 21 -29 0 -15 2 -15 10 -2 14 21 12 30 -5 30 -8 0 -15 5 -15 10 0 11
-33 14 -43 4z"/>
<path d="M16167 9987 c-3 -8 1 -14 8 -14 7 0 11 6 8 14 -3 7 -6 13 -8 13 -2 0
-5 -6 -8 -13z"/>
<path d="M16200 9971 c0 -17 2 -31 4 -31 8 0 13 51 5 56 -5 3 -9 -9 -9 -25z"/>
<path d="M19300 9623 c0 -11 3 -14 8 -7 4 6 14 14 22 17 10 4 8 6 -7 6 -16 1
-23 -5 -23 -16z"/>
</g>
</svg>
